<?xml version="1.0" standalone="no"?><!DOCTYPE svg PUBLIC "-//W3C//DTD SVG 1.1//EN" "http://www.w3.org/Graphics/SVG/1.1/DTD/svg11.dtd"><svg t="1758813356232" class="icon" viewBox="0 0 1024 1024" version="1.1" xmlns="http://www.w3.org/2000/svg" p-id="23846" xmlns:xlink="http://www.w3.org/1999/xlink" width="200" height="200"><path d="M126.846399 386.241524c40.731711-64.874921 93.910487-128.111472 146.816202-184.089131C379.496785 90.356361 484.306987 7.709671 485.035152 7.095282a32.858431 32.858431 0 0 1 40.731711 0c1.183268 1.319798 236.13015 185.408929 358.165998 379.146242 40.50416 64.988697 69.630747 131.593009 69.994829 197.651198-0.136531 241.955467-201.383042 436.4437-448.549437 436.898802v-48.286419c212.123471-0.068265 398.146789-176.87575 396.599439-388.612383 1.54735-80.166379-67.696559-205.251417-155.895505-303.96324-85.377308-96.845901-199.790182-196.604461-240.703934-230.600649-4.915112 4.095926-212.669594 172.210945-326.991448 356.891709-36.954357 59.732258-67.924111 132.116377-67.924111 177.67218 0 220.906957 182.860353 388.544117 394.915559 388.612383v48.263664C258.348388 1020.359177 57.033612 825.848189 56.897081 583.869967c0.295817-66.035434 29.422404-132.662501 69.949318-197.628443z m321.302661 446.410454a19.592181 19.592181 0 0 1-10.92247-21.617389l34.360271-171.391759h-171.300739a19.614936 19.614936 0 0 1-15.291458-32.016491l253.970184-311.7455a19.796977 19.796977 0 0 1 23.710862-5.392969 19.660446 19.660446 0 0 1 10.92247 21.617389l-34.428536 171.346249h171.414515a19.614936 19.614936 0 0 1 15.245948 32.039245L471.814412 827.281763a19.660446 19.660446 0 0 1-23.665352 5.370215z m82.009546-470.462643c-9.966754 0-179.424326 233.240246-179.424325 233.240246h168.228794s-44.509066 166.340117-38.06936 166.340117c6.439706 0 193.304965-240.658424 193.304965-240.658424h-185.204133s51.153568-158.921939 41.186815-158.921939z" fill="#0e932e" p-id="23847"></path></svg>