<?xml version="1.0" standalone="no"?><!DOCTYPE svg PUBLIC "-//W3C//DTD SVG 1.1//EN" "http://www.w3.org/Graphics/SVG/1.1/DTD/svg11.dtd"><svg t="1758813451273" class="icon" viewBox="0 0 1024 1024" version="1.1" xmlns="http://www.w3.org/2000/svg" p-id="31133" xmlns:xlink="http://www.w3.org/1999/xlink" width="200" height="200"><path d="M597.3504 99.84c27.648 0 50.4832 20.992 53.4528 47.9232l0.3072 5.8368-0.0512 287.5392h151.04c27.7504 0 50.5344 20.992 53.504 47.9232l0.3072 5.888-0.0512 355.7888h31.5904c19.7632 0 31.7952 8.3968 35.4816 24.8832l0.9216 5.7856 0.3072 6.0416c0 24.1664-12.544 36.7104-36.7104 36.7104l-84.5312-0.0512-0.768 0.0512h-170.7008l-0.768-0.0512h-32.5632l-0.768 0.0512H426.6496l-0.768-0.0512h-32.5632l-0.768 0.0512H221.8496l-0.768-0.0512-84.5312 0.0512c-19.7632 0-31.7952-8.3968-35.4816-24.8832l-0.9216-5.7856-0.3072-6.0416c0-24.1664 12.544-36.6592 36.7104-36.6592l31.5392-0.0512V358.4c0-27.6992 20.992-50.5344 47.9232-53.4528l5.8368-0.3072h151.04V153.6c0-27.6992 20.992-50.5344 47.9232-53.4528l5.8368-0.3072h170.7008z m-151.04 480.4096l-0.0512 270.4896h131.4304v-267.9808l-131.3792-2.5088z m204.8 204.8l-0.0512 65.6896h131.4304v-63.1808l-131.3792-2.5088zM244.1216 716.8h-2.6624l-2.56 133.9904 133.9904-0.0512v-131.4304L244.1216 716.8z m409.6512-204.8h-2.7136v202.24h131.4304v-199.7824L653.7728 512zM241.5104 375.4496l-1.4848 270.4896h132.864V377.9584l-131.3792-2.5088z m204.8-204.8l-0.6144 179.6608 0.3072 2.2528 0.3072 5.8368-0.0512 151.04h131.3792l0.0512-336.2816-131.3792-2.5088z" fill="#000000" p-id="31134"></path></svg>