<?xml version="1.0" standalone="no"?><!DOCTYPE svg PUBLIC "-//W3C//DTD SVG 1.1//EN" "http://www.w3.org/Graphics/SVG/1.1/DTD/svg11.dtd"><svg t="1758813216745" class="icon" viewBox="0 0 1024 1024" version="1.1" xmlns="http://www.w3.org/2000/svg" p-id="13223" xmlns:xlink="http://www.w3.org/1999/xlink" width="200" height="200"><path d="M852.551 162c61 0 110.449 49.414 110.449 110.368v478.264C963 811.586 913.55 861 852.551 861H171.449C110.449 861 61 811.586 61 750.632V272.368C61 211.414 110.45 162 171.449 162z m47.444 235.411l-0.706 0.008H120.826v353.213c0 27.658 22.214 50.132 49.786 50.578l0.837 0.007h681.102c27.958 0 50.622-22.648 50.622-50.585l0.001-353.462a30.16 30.16 0 0 1-3.179 0.241z m-86.561 171.573c16.52 0 29.913 13.382 29.913 29.891 0 16.273-13.013 29.508-29.207 29.883l-0.706 0.008H647.76c-16.52 0-29.913-13.382-29.913-29.891 0-16.273 13.013-29.508 29.207-29.883l0.706-0.008h165.674z m39.117-347.201H171.449c-27.958 0-50.622 22.648-50.622 50.585l-0.001 65.268h778.463c1.317 0 2.613 0.086 3.885 0.25v-65.518c0-27.937-22.665-50.585-50.623-50.585z" fill="#333333" p-id="13224"></path></svg>