<?xml version="1.0" standalone="no"?><!DOCTYPE svg PUBLIC "-//W3C//DTD SVG 1.1//EN" "http://www.w3.org/Graphics/SVG/1.1/DTD/svg11.dtd"><svg t="1758813276604" class="icon" viewBox="0 0 1024 1024" version="1.1" xmlns="http://www.w3.org/2000/svg" p-id="20711" xmlns:xlink="http://www.w3.org/1999/xlink" width="200" height="200"><path d="M506.231 65.01C259.41 65.01 59.32 265.1 59.32 511.922c0 246.824 200.09 446.913 446.911 446.913 246.824 0 446.913-200.09 446.913-446.913S753.054 65.01 506.23 65.01z m-241.84 420.164h-77.98v-48.992h63.264l259.204-206.961 187.372 157.822-40.365 30.37-147.007-122.44-243.215 190.201h-1.273zM607.8 624.619v28.492h-85.557v57.246H483.83V653.11h-85.442v-28.492h85.442V599.27l-6.627-12.782h-78.815v-28.49h65.696l-57.289-94.82h39.861L502.003 558l56.661-94.82h39.875L542.117 558H607.8v28.49h-79.398l-6.16 12.782v25.348h85.558z m132.073 122.404c0 27.095-21.892 49.075-48.988 49.075H315.31c-27.096 0-48.995-21.98-48.995-49.075V567.036h48.995v179.987h375.574V567.036h48.988v179.987z m86.971-214.695c-3.078-4.303-16.063-20.334-36.218-29.626s-53.841-7.636-53.841-7.636v38.69l-92.845-65.765 92.845-65.763v39.046s22.302 1.677 33.962 4.094c19.635 4.067 30.405 13.738 30.405 13.738 11.499 6.858 25.61 25.349 31.48 47.607 5.868 22.26 4.898 42.188 4.898 42.188s-7.605-12.271-10.686-16.573z" fill="#FF6086" p-id="20712"></path></svg>