<?xml version="1.0" standalone="no"?><!DOCTYPE svg PUBLIC "-//W3C//DTD SVG 1.1//EN" "http://www.w3.org/Graphics/SVG/1.1/DTD/svg11.dtd"><svg t="1758813432669" class="icon" viewBox="0 0 1024 1024" version="1.1" xmlns="http://www.w3.org/2000/svg" p-id="30066" xmlns:xlink="http://www.w3.org/1999/xlink" width="200" height="200"><path d="M215.08586258 320.16193026C44.10744289 545.72899346 640.97627689 926.50599513 796.25692604 599.2569768c100.69200564-251.7300141-179.95867581-192.2623338-258.09397514-228.67833304-74.03407999-34.5775216-152.02795796-275.91306602-323.07708832-50.4167135z" fill="#C44405" p-id="30067"></path><path d="M603.49961749 429.97561338c-56.14427843 17.96051224-111.36931804-6.01040764-137.17871555-58.97270555-3.74766594-7.70746391-15.34421715-1.06066017-11.59655122 6.64680374 28.21356057 57.91204538 90.7925107 84.85281374 152.16937932 65.33666659 8.06101731-2.68700577 4.73761543-15.62705986-3.39411255-13.01076478z" p-id="30068"></path><path d="M216.07581207 512.21213203c108.32875888 183.5649204 465.27626202 329.22891732 580.11040329 86.97413409 12.65721138-31.46625176-159.3111578 243.59828612-580.11040329-86.97413409z" fill="#9E3000" p-id="30069"></path><path d="M751.35564543 665.93714626c-48.43681451 48.43681451-109.31870837 61.09402589-157.6848122 61.65971132-71.4177849 0.84852814-151.8865366-23.61736649-226.69843405-68.87220048-72.19560236-43.76990976-130.81475452-102.81332598-160.58395001-161.99816357-33.02188668-65.54879862-30.33488091-126.78424587 7.84888527-177.13024869 47.87112909-63.14463556 91.64103884-94.32804461 133.85531368-95.53012614 53.81082605-1.48492424 94.75230868 46.5276262 130.81475452 88.95403307 20.93036072 24.60731599 40.65863992 47.87112909 59.67981233 56.70996386 19.30401513 8.98025612 50.55813485 12.09152596 86.76200205 15.62705986 33.09259736 3.25269119 70.63996744 6.85893578 103.0961687 16.12203461 37.40594872 10.6773124 62.3668181 27.1529004 76.5796644 50.4167135 20.85965005 34.29467889 18.31406563 82.66078272-7.77817459 147.78531727-13.01076477 27.29432175-28.70853532 49.07321061-45.8912301 66.25590539zM215.86368004 320.79832637c-37.68879144 49.70960672-40.37579721 110.23794719-7.70746392 175.00892834 29.69848481 58.83128419 87.96408358 117.66256839 159.87684323 161.14963543 74.38763338 45.11341264 154.50283169 69.36717523 225.5670632 68.58935778C641.54196231 724.98056249 701.85817075 712.46477247 749.87072119 664.45222202c17.04127343-17.04127343 32.52691193-38.60803025 45.39625535-65.61950929 25.80939751-64.55884912 28.4256926-112.28855685 7.91959595-145.94683964-13.93000359-22.83954903-38.60803025-39.03229432-75.37758287-49.49747468-32.24406922-9.19238816-69.72072862-12.86934342-102.74261531-16.05132393-36.34528855-3.53553391-67.81154032-6.57609307-87.46910883-15.76848122-19.3747258-9.0509668-39.24442636-32.45620126-60.31620844-57.2049386-35.77960313-42.0021428-76.29682169-89.73185053-129.2591196-88.24692629-41.3657467 1.06066017-84.64068171 32.03193719-132.1582574 94.681598z" p-id="30070"></path></svg>