<?xml version="1.0" standalone="no"?><!DOCTYPE svg PUBLIC "-//W3C//DTD SVG 1.1//EN" "http://www.w3.org/Graphics/SVG/1.1/DTD/svg11.dtd"><svg t="1758814098535" class="icon" viewBox="0 0 1024 1024" version="1.1" xmlns="http://www.w3.org/2000/svg" p-id="49659" xmlns:xlink="http://www.w3.org/1999/xlink" width="200" height="200"><path d="M745.109606 1023.976801H465.915931c-51.19884 0-92.797898-41.599058-92.797897-92.797898V655.185156c1.599964-53.598786 31.999275-102.39768 80.798169-126.397136 69.598423-32.799257 152.796538-2.399946 185.595795 67.198477 8.799801 18.399583 12.79971 38.39913 12.79971 59.198659v182.395868c0 25.59942-20.799529 46.398949-46.398948 46.398948s-46.398949-20.799529-46.398949-46.398948V655.185156c0-12.79971-4.799891-24.799438-13.599692-33.599239-14.399674-13.599692-36.799166-17.599601-54.398767-7.999819a55.998731 55.998731 0 0 0-24.799439 41.599058v275.193765h279.193675c25.59942 0 46.398949-20.799529 46.398949-46.398949V473.58927c0-25.59942 20.799529-46.398949 46.398948-46.398949h27.199384l-319.99275-319.99275c-18.399583-18.399583-47.198931-18.399583-65.598514 0l-319.99275 319.99275h27.199384c25.59942 0 46.398949 20.799529 46.398949 46.398949v407.190775c0 27.199384 20.799529 49.598876 47.998912 50.398858 25.59942 0.799982 45.598967 22.399493 44.798985 47.998913-0.799982 25.59942-22.399493 45.598967-47.998912 44.798985-77.598242-2.399946-138.396864-66.398496-138.396865-143.196756V519.988219H46.725429c-19.199565 0-35.999184-11.199746-43.199021-28.799347-7.199837-17.599601-3.199928-37.599148 10.399764-50.398859l399.990938-399.990937c54.398768-54.398768 143.196756-54.398768 197.595523 0L1010.703589 439.990031c13.599692 13.599692 17.599601 33.599239 10.399764 50.398859-7.199837 17.599601-23.999456 28.799348-43.199021 28.799347h-92.797898v364.791735c-0.799982 77.598242-63.198568 139.996828-139.996828 139.996829z" fill="#1DB6D1" p-id="49660"></path></svg>