<?xml version="1.0" standalone="no"?><!DOCTYPE svg PUBLIC "-//W3C//DTD SVG 1.1//EN" "http://www.w3.org/Graphics/SVG/1.1/DTD/svg11.dtd"><svg t="1758813146819" class="icon" viewBox="0 0 1024 1024" version="1.1" xmlns="http://www.w3.org/2000/svg" p-id="10052" xmlns:xlink="http://www.w3.org/1999/xlink" width="200" height="200"><path d="M512 512m-448 0a448 448 0 1 0 896 0 448 448 0 1 0-896 0Z" fill="#52CABC" p-id="10053"></path><path d="M1024 622L696 1024 593.291 727.038 696 652l30.473-105.544z" fill="#FFFFFF" opacity=".2" p-id="10054"></path><path d="M282 389m30 0l94 0q30 0 30 30l0 288q0 30-30 30l-94 0q-30 0-30-30l0-288q0-30 30-30Z" fill="#BAE9E4" p-id="10055"></path><path d="M711.878 287c16.568 0 30 13.431 30 30v390c0 16.569-13.432 30-30 30h-336V317c0-16.569 13.431-30 30-30h306zM617 597H501c-11.046 0-20 8.954-20 20s8.954 20 20 20h116c11.046 0 20-8.954 20-20s-8.954-20-20-20z m0-104H501c-11.046 0-20 8.954-20 20s8.954 20 20 20h116c11.046 0 20-8.954 20-20s-8.954-20-20-20z m0-104H501c-11.046 0-20 8.954-20 20s8.954 20 20 20h116c11.046 0 20-8.954 20-20s-8.954-20-20-20z" fill="#FFFFFF" p-id="10056"></path></svg>