<?xml version="1.0" standalone="no"?><!DOCTYPE svg PUBLIC "-//W3C//DTD SVG 1.1//EN" "http://www.w3.org/Graphics/SVG/1.1/DTD/svg11.dtd"><svg t="1758814123082" class="icon" viewBox="0 0 1024 1024" version="1.1" xmlns="http://www.w3.org/2000/svg" p-id="51762" xmlns:xlink="http://www.w3.org/1999/xlink" width="200" height="200"><path d="M886.214276 299.917919C886.214276 254.476638 847.686191 217.478746 800.304843 217.478746L704.421828 217.478746 704.421828 191.383482C704.421828 85.854783 617.692648 0 511.125604 0 404.558559 0 317.856704 85.854783 317.856704 191.383482L317.856704 217.478746 223.476558 217.478746C176.09521 217.478746 137.5398 254.476638 137.649099 297.649953L75.59429 941.150954C75.59429 986.592235 114.1497 1023.590127 161.531047 1023.590127L862.223029 1023.590127C909.604376 1023.590127 948.159787 986.592235 948.050487 938.882989L886.214276 299.917919ZM680.43058 411.184843C693.683149 411.184843 704.421828 400.555464 704.421828 387.43952L704.421828 363.967445C710.405977 369.978919 714.122161 378.231034 714.122161 387.33022 714.122161 405.719867 699.011501 420.666578 680.403256 420.666578 661.822335 420.666578 646.711674 405.719867 646.711674 387.33022 646.711674 378.203709 650.455183 369.951594 656.439333 363.94012L656.439333 387.43952C656.439333 400.555464 667.178012 411.184843 680.43058 411.184843ZM365.839199 191.383482C365.839199 112.032021 431.009046 47.490647 511.125604 47.490647 591.269486 47.490647 656.439333 112.032021 656.439333 191.383482L656.439333 217.478746 365.839199 217.478746 365.839199 191.383482ZM341.847952 411.184843C355.10052 411.184843 365.839199 400.555464 365.839199 387.43952L365.839199 364.04942C371.823349 370.088219 375.566858 378.313009 375.566858 387.43952 375.566858 405.829166 360.456197 420.775877 341.902602 420.775877 323.294356 420.775877 308.183696 405.829166 308.183696 387.43952 308.183696 378.340334 311.89988 370.115544 317.856704 364.104069L317.856704 387.43952C317.856704 400.555464 328.595384 411.184843 341.847952 411.184843ZM862.223029 976.09948 161.531047 976.09948C140.600187 976.09948 123.576785 960.414997 123.467485 943.391594L185.49497 299.917919C185.49497 280.653876 202.545697 264.969393 223.476558 264.969393L317.856704 264.969393 317.856704 322.952795C291.269593 332.680454 272.196825 357.792021 272.196825 387.43952 272.196825 425.475757 303.456491 456.407525 341.902602 456.407525 380.294063 456.407525 411.526404 425.475757 411.526404 387.43952 411.526404 357.764696 392.426311 332.653129 365.839199 322.92547L365.839199 264.969393 656.439333 264.969393 656.439333 322.816171C629.852221 332.543829 610.752128 357.655397 610.752128 387.33022 610.752128 425.339133 641.98447 456.298225 680.403256 456.298225 718.849366 456.298225 750.109033 425.339133 750.109033 387.33022 750.109033 357.682722 731.008939 332.571154 704.421828 322.843496L704.421828 264.969393 800.304843 264.969393C821.208379 264.969393 838.259106 280.653876 838.368406 302.185884L900.204616 941.150954C900.204616 960.414997 883.181214 976.09948 862.223029 976.09948Z" p-id="51763"></path></svg>