<?xml version="1.0" standalone="no"?><!DOCTYPE svg PUBLIC "-//W3C//DTD SVG 1.1//EN" "http://www.w3.org/Graphics/SVG/1.1/DTD/svg11.dtd"><svg t="1758813335115" class="icon" viewBox="0 0 1024 1024" version="1.1" xmlns="http://www.w3.org/2000/svg" p-id="22823" xmlns:xlink="http://www.w3.org/1999/xlink" width="200" height="200"><path d="M513.968 77.325a140.742 140.742 0 0 1 97.457 30.499c22.808-10.32 58.408-21.464 92.845-12.074a95.915 95.915 0 0 1 61.013 52.17c31.764 63.702-0.341 126.815-36.642 177.068 58.7 37.364 218.227 159.79 213.245 383.547-5.288 236.834-190.91 238.06-192.7 238.14H298.088c-126.908 0-199.303-75.282-215.172-223.753l-0.119-1.424c-13.571-208.05 149.692-343.187 219.76-391.182-37.221-45.415-71.288-97.427-57.267-152.534a97.857 97.857 0 0 1 47.812-63.923c37.56-20.526 85.274-15.07 123.502-4.528 21.564-15.123 44.975-27.558 97.364-32.006z m65.466 93.824c-3.661-3.896-27.563-27.899-59.61-25.17-41.718 3.558-52.195 11.214-73.072 26.535l-17.89 13.047-16.765-5.61c-37.413-12.508-69.587-14.599-86.045-5.589-4.819 2.634-10.78 7.344-14.135 20.496-6.92 27.227 21.795 65.99 53.87 103.832a54 54 0 0 1-12.157 80.382c-50.441 32.209-213.957 151.654-202.293 337.227 8.639 79.966 32.985 161.46 146.751 161.46h451.345c12.232-0.134 120.058-6.09 123.76-170.766 4.646-207.438-159.997-312.042-193.046-330.901a53.985 53.985 0 0 1-15.973-79.675c41.727-54.553 53.589-89.742 39.662-117.676-5.99-12.005-12.534-15.114-17.56-16.488-19.236-5.233-50.135 8.926-61.285 16.186l-25.522 16.636-19.547-23.397c-0.003-0.003-0.097-0.108-0.278-0.304z" fill="#000000" p-id="22824"></path><path d="M512.361 414.246c-23.171 0.454-44.673 9.072-59.939 26.312l-1.11 1.283-94.519 94.524c-16.167 16.167-26.527 38.958-26.527 61.892l0.019 1.935c0.453 23.171 9.072 44.673 26.312 59.939l1.281 1.105 94.525 94.524c31.958 31.958 87.92 31.958 122.356 1.348l0.735-0.653 96.305-96.305c16.167-16.168 26.527-38.959 26.527-61.893l-0.019-1.934c-0.453-23.172-9.072-44.673-26.311-59.94l-1.316-1.137-94.491-94.491c-16.168-16.168-38.96-26.528-61.893-26.528l-1.935 0.02z m1.935 66.87c4.315 0 10.446 2.787 14.595 6.936l96.92 96.92 1.446 1.157c2.572 2.057 4.18 5.988 4.18 12.128l-0.037 0.886c-0.34 4.238-3.026 9.837-6.9 13.71l-94.698 94.694 0.519-0.433c-8.588 7.634-24.334 7.634-30.62 1.348l-96.92-96.92-1.446-1.157c-2.572-2.057-4.18-5.988-4.18-12.128 0-4.315 2.787-10.446 6.936-14.595l96.92-96.92 1.157-1.446c2.057-2.572 5.988-4.18 12.128-4.18z" fill="#E76558" p-id="22825"></path></svg>