<?xml version="1.0" standalone="no"?><!DOCTYPE svg PUBLIC "-//W3C//DTD SVG 1.1//EN" "http://www.w3.org/Graphics/SVG/1.1/DTD/svg11.dtd"><svg t="1758813561797" class="icon" viewBox="0 0 1024 1024" version="1.1" xmlns="http://www.w3.org/2000/svg" p-id="35792" xmlns:xlink="http://www.w3.org/1999/xlink" width="200" height="200"><path d="M889.4 329.6h-99.8c15.4-24.6 24.3-53.7 24.3-84.9 0-88.6-71.8-160.4-160.4-160.4-68.2 0-126.4 42.5-149.6 102.5-22.5-28-57-45.9-95.7-45.9-67.7 0-122.7 54.9-122.7 122.7 0 24.3 7.1 47 19.3 66H134.6c-20.8 0-37.7 16.9-37.7 37.7v151c0 20.8 16.9 37.7 37.7 37.7h37.7v301.9c0 20.8 16.9 37.7 37.7 37.7h603.8c20.8 0 37.7-16.9 37.7-37.7V556h37.7c20.8 0 37.7-16.9 37.7-37.7v-151c0.2-20.8-16.7-37.7-37.5-37.7zM653.5 122c67.7 0 122.6 54.9 122.6 122.6 0 33-13 62.9-34.1 84.9H565c-21.1-22-34.1-52-34.1-84.9 0-67.7 54.9-122.6 122.6-122.6z m-139 202.7c0.9 1.6 1.9 3.2 2.9 4.8h-5.9c1.1-1.5 2.1-3.1 3-4.8zM408.2 178.6c46.9 0 84.9 38 84.9 84.9 0 26.7-12.3 50.5-31.6 66H354.9c-19.2-15.6-31.6-39.4-31.6-66 0-46.9 38-84.9 84.9-84.9zM153.5 518.3c-10.4 0-18.9-8.5-18.9-18.9V386.2c0-10.4 8.4-18.9 18.9-18.9h339.6v151H153.5zM210.1 839V574.9c0-10.4 8.4-18.9 18.9-18.9h264.2v301.9H229c-10.5 0-18.9-8.4-18.9-18.9z m603.8 0c0 10.4-8.4 18.9-18.9 18.9H530.9V556H795c10.4 0 18.9 8.4 18.9 18.9V839z m75.5-339.6c0 10.4-8.4 18.9-18.9 18.9H530.9v-151h339.6c10.4 0 18.9 8.4 18.9 18.9v113.2z" p-id="35793"></path></svg>