<?xml version="1.0" standalone="no"?><!DOCTYPE svg PUBLIC "-//W3C//DTD SVG 1.1//EN" "http://www.w3.org/Graphics/SVG/1.1/DTD/svg11.dtd"><svg t="1758846881803" class="icon" viewBox="0 0 2048 1024" version="1.1" xmlns="http://www.w3.org/2000/svg" p-id="15215" xmlns:xlink="http://www.w3.org/1999/xlink" width="400" height="200"><path d="M0 0m83.857717 0l1299.794614 0q83.857717 0 83.857717 83.857717l0 566.03959q0 83.857717-83.857717 83.857717l-1299.794614 0q-83.857717 0-83.857717-83.857717l0-566.03959q0-83.857717 83.857717-83.857717Z" fill="#FF8700" p-id="15216"></path><path d="M186.331847 569.121361a18.867986 18.867986 0 0 0-2.348016 14.675101v0.587004a21.970722 21.970722 0 0 0 8.80506 12.578657 16.771543 16.771543 0 0 0 14.675101 2.096443 588.471529 588.471529 0 0 0 123.270844-41.677285 305.556556 305.556556 0 0 0 91.572627-62.893288 218.575139 218.575139 0 0 0 29.643703-37.861759 223.816247 223.816247 0 0 0 19.664635-40.79678l198.407358 176.68821a16.645757 16.645757 0 0 0 13.501093 5.283036 20.964429 20.964429 0 0 0 13.501092-6.457044l0.587004-1.174008a18.280982 18.280982 0 0 0 5.283036-13.501092 17.924587 17.924587 0 0 0-6.457044-13.501093l-183.732258-164.361125h176.68821a19.056666 19.056666 0 0 0 19.371132-19.371133v-1.09015a19.056666 19.056666 0 0 0-19.371132-19.371133h-206.038411q1.174008-9.392064 1.761012-18.490626t0.587004-19.077631v-230.608722a19.308239 19.308239 0 0 0-5.283036-13.794594 17.7988 17.7988 0 0 0-13.501093-5.72329h-1.174008a19.056666 19.056666 0 0 0-19.371132 19.371133v230.608722q0 9.979068-0.880506 19.371133t-2.096443 18.197124H196.310916a19.035702 19.035702 0 0 0-13.501093 5.576538 18.260018 18.260018 0 0 0-5.87004 13.794595v1.257866a18.239053 18.239053 0 0 0 5.87004 13.794594 18.993773 18.993773 0 0 0 13.501093 5.576538H433.963686a4.192886 4.192886 0 0 1-0.293502 1.761012 2.55766 2.55766 0 0 0-0.293502 1.174008 183.690329 183.690329 0 0 1-44.025302 68.092467 294.822769 294.822769 0 0 1-82.180562 55.178377q-22.306153 9.979068-49.308338 19.077631t-59.287406 16.771543a18.448698 18.448698 0 0 0-12.243227 8.239021z m31.111213-318.156178a19.035702 19.035702 0 0 0-13.501092 5.576538 18.260018 18.260018 0 0 0-5.87004 13.794594v0.587004a18.239053 18.239053 0 0 0 5.87004 13.794595 18.993773 18.993773 0 0 0 13.501092 5.576538h160.839102a19.056666 19.056666 0 0 0 19.371132-19.371133V270.441137a19.056666 19.056666 0 0 0-19.371132-19.371132h-160.839102z m0-116.226796a19.035702 19.035702 0 0 0-13.501092 5.576538 18.260018 18.260018 0 0 0-5.87004 13.794594v0.587005a18.239053 18.239053 0 0 0 5.87004 13.794594 18.993773 18.993773 0 0 0 13.501092 5.576538h160.839102a19.056666 19.056666 0 0 0 19.371132-19.371132v-0.587005a19.056666 19.056666 0 0 0-19.371132-19.371132h-160.839102z m683.859683-28.176193a18.867986 18.867986 0 0 0 0.587004-15.262105 17.610121 17.610121 0 0 0-10.482215-10.482214l-0.587004-0.587004a18.239053 18.239053 0 0 0-15.05246-0.56604 17.7988 17.7988 0 0 0-10.27257 9.979069l-15.262105 32.767402a19.413061 19.413061 0 0 0 1.46751 18.867987 17.966516 17.966516 0 0 0 16.142611 8.80506H1146.754281a468.995247 468.995247 0 0 1-57.526394 48.218187 513.125371 513.125371 0 0 1-63.396434 38.155262L863.734486 178.197649a21.48854 21.48854 0 0 0-15.262105 0.880506 16.960223 16.960223 0 0 0-9.392064 11.446578L838.57717 191.090773a17.442405 17.442405 0 0 0 0.587004 14.6751 20.000066 20.000066 0 0 0 11.153077 9.979069l123.270844 44.025301a708.031669 708.031669 0 0 1-93.920643 29.937205q-48.218187 11.74008-95.681655 19.958137a17.484334 17.484334 0 0 0-12.033583 7.33755 19.140524 19.140524 0 0 0-3.228522 14.381598v1.761012a17.505298 17.505298 0 0 0 7.631052 12.578658 20.062959 20.062959 0 0 0 14.675101 3.228522 1061.324231 1061.324231 0 0 0 120.629326-27.002185 750.945856 750.945856 0 0 0 115.304361-43.438297l235.975615 83.857717a16.771543 16.771543 0 0 0 14.381599-0.587004 19.790421 19.790421 0 0 0 10.27257-11.740081v-0.461217a18.029409 18.029409 0 0 0-0.587004-14.968603 20.314532 20.314532 0 0 0-11.153076-9.685566l-201.258521-71.61449a615.620465 615.620465 0 0 0 72.36921-49.60184 498.953416 498.953416 0 0 0 64.27694-61.34192A18.322911 18.322911 0 0 0 1215.936897 132.075904a21.530469 21.530469 0 0 0-1.46751-10.482214 18.7422 18.7422 0 0 0-17.400476-11.509472H898.954727zM1050.317906 431.867243h201.258521a19.056666 19.056666 0 0 0 19.371132-19.371133v-0.691826a19.056666 19.056666 0 0 0-19.371132-19.371133h-201.258521v-59.287406a20.083923 20.083923 0 0 0-19.371133-19.371132h-1.09015a18.280982 18.280982 0 0 0-13.794594 5.87004 19.014737 19.014737 0 0 0-5.576539 13.501092v59.287406h-202.516386a19.056666 19.056666 0 0 0-19.371133 19.371133v0.587004a19.056666 19.056666 0 0 0 19.371133 19.371133h202.516386v100.964691a28.490659 28.490659 0 0 1-2.93502 12.914088 51.59346 51.59346 0 0 1-7.631052 11.153077 31.446644 31.446644 0 0 1-24.067165 9.392064h-11.153076a19.056666 19.056666 0 0 0-19.371133 19.371133v1.174008a19.056666 19.056666 0 0 0 19.371133 19.371132h11.153076a72.243423 72.243423 0 0 0 52.830362-22.306152l-1.761012 1.174008a67.526427 67.526427 0 0 0 23.480161-52.243358V431.867243z m-114.465784 33.543087a20.062959 20.062959 0 0 0-8.80506-12.914089h-0.419289a18.406769 18.406769 0 0 0-14.088096-3.522024 18.17616 18.17616 0 0 0-12.327085 7.631052 270.294386 270.294386 0 0 1-50.482345 52.830362 401.699429 401.699429 0 0 1-62.893288 40.503277 18.427733 18.427733 0 0 0-9.685566 11.446579 20.964429 20.964429 0 0 0 12.033582 24.947671 24.088129 24.088129 0 0 0 15.262105-1.174009 421.531779 421.531779 0 0 0 70.440482-45.786313 342.097557 342.097557 0 0 0 56.93939-59.287406 17.421441 17.421441 0 0 0 4.192886-14.6751z m228.344564-11.740081a20.964429 20.964429 0 0 0-14.381599-4.989534 18.029409 18.029409 0 0 0-13.20759 6.163542l-1.174008 1.174008a20.838643 20.838643 0 0 0-4.989534 14.381599 17.253725 17.253725 0 0 0 6.750546 13.20759l113.207918 102.1387a18.867986 18.867986 0 0 0 13.794594 4.989534 17.316619 17.316619 0 0 0 13.207591-6.750547l1.425581-0.775683a20.964429 20.964429 0 0 0 4.989534-14.381599 17.295654 17.295654 0 0 0-6.750546-13.20759z" fill="#FFFFFF" p-id="15217"></path></svg>