<?xml version="1.0" standalone="no"?><!DOCTYPE svg PUBLIC "-//W3C//DTD SVG 1.1//EN" "http://www.w3.org/Graphics/SVG/1.1/DTD/svg11.dtd"><svg t="1758813229176" class="icon" viewBox="0 0 1024 1024" version="1.1" xmlns="http://www.w3.org/2000/svg" p-id="14500" xmlns:xlink="http://www.w3.org/1999/xlink" width="200" height="200"><path d="M1024 0H0v1024h1024V0z" fill="#FFFFFF" fill-opacity=".01" p-id="14501"></path><path d="M486.765714 88.283429a27.428571 27.428571 0 0 1 34.230857 0l467.309715 373.869714a27.428571 27.428571 0 1 1-34.267429 42.788571l-72.265143-57.782857V950.857143a27.428571 27.428571 0 0 1-27.428571 27.428571H153.380571a27.428571 27.428571 0 0 1-27.428571-27.428571V447.158857l-72.228571 57.782857a27.428571 27.428571 0 0 1-34.267429-42.788571l116.809143-93.476572 350.464-280.393142z m340.150857 314.989714L503.881143 144.822857l-323.072 258.450286V923.428571h646.107428V403.273143zM356.571429 605.257143c0 24.612571 12.251429 49.737143 31.341714 74.386286 16.676571 21.504 36.278857 39.862857 52.443428 55.003428l6.509715 6.070857c17.188571 16.201143 38.326857 32.694857 63.634285 49.481143a477.476571 477.476571 0 0 0 70.107429-55.588571c16.164571-15.104 35.766857-33.462857 52.443429-54.966857 19.090286-24.612571 31.341714-49.737143 31.341714-74.386286 0-34.852571-30.464-65.828571-71.497143-65.828572-25.526857 0-47.469714 12.288-59.977143 30.061715a27.428571 27.428571 0 0 1-44.873143 0 73.069714 73.069714 0 0 0-59.977143-30.061715c-41.033143 0-71.497143 30.976-71.497142 65.828572z m71.497142-120.685714a129.462857 129.462857 0 0 1 82.395429 29.220571 129.462857 129.462857 0 0 1 82.432-29.220571c68.242286 0 126.354286 52.553143 126.354286 120.685714 0 42.422857-20.736 79.469714-42.861715 107.995428-19.565714 25.234286-42.569143 46.738286-58.550857 61.659429l-0.036571 0.036571c-2.194286 2.011429-4.205714 3.913143-6.070857 5.705143-23.588571 22.235429-52.589714 43.995429-86.674286 65.426286a27.428571 27.428571 0 0 1-29.184 0c-34.048-21.430857-63.049143-43.190857-86.637714-65.462857l-6.070857-5.668572-0.036572-0.036571c-16.018286-14.921143-38.985143-36.388571-58.587428-61.659429-22.125714-28.525714-42.825143-65.572571-42.825143-107.995428 0-68.169143 58.112-120.685714 126.354285-120.685714z" fill="#FD9032" p-id="14502"></path></svg>