<?xml version="1.0" standalone="no"?><!DOCTYPE svg PUBLIC "-//W3C//DTD SVG 1.1//EN" "http://www.w3.org/Graphics/SVG/1.1/DTD/svg11.dtd"><svg t="1758814110090" class="icon" viewBox="0 0 1024 1024" version="1.1" xmlns="http://www.w3.org/2000/svg" p-id="50680" xmlns:xlink="http://www.w3.org/1999/xlink" width="200" height="200"><path d="M479.925 554.58v-42.66H383.94v-63.99h82.732l-84.026-84.026 45.248-45.248 84.026 84.026 84.026-84.026 45.248 45.248-84.026 84.026H639.9v63.99h-95.985v42.66H639.9v63.99h-95.985v85.32h-63.99v-85.32H383.94v-63.99h95.985zM511.92 85.32c235.605 0 426.6 190.995 426.6 426.6 0 235.605-190.995 426.6-426.6 426.6-235.605 0-426.6-190.995-426.6-426.6 0-235.605 190.995-426.6 426.6-426.6z m0 63.99c-200.264 0-362.61 162.346-362.61 362.61s162.346 362.61 362.61 362.61 362.61-162.346 362.61-362.61-162.346-362.61-362.61-362.61z" fill="#000000" p-id="50681"></path></svg>